<svg xmlns="http://www.w3.org/2000/svg" width="295.95" height="295.95" viewBox="0 0 295.95 295.95">
  <defs>
    <filter id="a" width="77.688" height="77.79" x="194.03" y="196.9" filterUnits="userSpaceOnUse">
      <feOffset dy="3"/>
      <feGaussianBlur result="blur" stdDeviation="3"/>
      <feFlood flood-opacity=".161"/>
      <feComposite in2="blur" operator="in"/>
      <feComposite in="SourceGraphic"/>
    </filter>
    <filter id="b" width="217.445" height="217.371" x="24.253" y="27.262" filterUnits="userSpaceOnUse">
      <feOffset dy="3"/>
      <feGaussianBlur result="blur-2" stdDeviation="3"/>
      <feFlood flood-opacity=".161"/>
      <feComposite in2="blur-2" operator="in"/>
      <feComposite in="SourceGraphic"/>
    </filter>
  </defs>
  <path fill="#ef5388" d="M59.13 0h177.63a59.177 59.177 0 0 1 59.19 59.13V236.7a59.2 59.2 0 0 1-59.19 59.25H59.13A59.19 59.19 0 0 1 0 236.7V59.13A59.164 59.164 0 0 1 59.13 0Z"/>
  <g filter="url(#a)">
    <path fill="#fff" d="M233.75 262.69c-1.44-.01-3.3-.07-4.28-.17-12.47-1.03-22.61-10.18-25.59-22.74a29.831 29.831 0 0 1 57.84-14.62c.08.3.15.59.22.89a29.817 29.817 0 0 1-22.31 35.78c-.28.07-.57.13-.86.19a31.383 31.383 0 0 1-5.02.67Z"/>
  </g>
  <g filter="url(#b)">
    <path fill="#fff" d="M216.27 187.38c-1.06-.75-13.22-12.89-14.08-14.08.16-.33.31-.71.51-1.07a79.679 79.679 0 0 0 10.16-33.73 72.365 72.365 0 0 0 .21-7.51 80.239 80.239 0 0 0-66.2-77.07 61.531 61.531 0 0 0-9.95-1.06c-1.2-.02-2.4-.19-3.59-.18a80.239 80.239 0 0 0-80.17 73.37 75.064 75.064 0 0 0-.16 11.42 79.505 79.505 0 0 0 13.47 40 77.714 77.714 0 0 0 8.74 10.83 2.651 2.651 0 0 0 1.26.98 3.063 3.063 0 0 0 1.28-1.02q3.945-3.915 7.87-7.85 8.91-8.91 17.83-17.82c.44-.44.85-.9 1.22-1.3a2.949 2.949 0 0 0-1.03-1.49 39.513 39.513 0 0 1-8.71-15.23 39.016 39.016 0 0 1-1.71-13.75 39.755 39.755 0 0 1 19.86-32.39 37.658 37.658 0 0 1 13.95-4.87 39.827 39.827 0 0 1 45.09 32.24 39.31 39.31 0 0 1 .54 9.19 38.881 38.881 0 0 1-6.1 19.16 33.516 33.516 0 0 1-4.76 5.99q-6.84 6.78-13.62 13.62a3.585 3.585 0 0 0-1.18 1.49 6.515 6.515 0 0 0 .43.6c.35.38.73.75 1.1 1.12q18.885 18.87 37.75 37.75a5.322 5.322 0 0 1 1.21 1.38c-2.58 2.79-16.71 9.56-25.28 12.14a99.363 99.363 0 0 1-52.86 1.54 97.763 97.763 0 0 1-45.32-24.82 99.725 99.725 0 0 1-3.11-140.99c.46-.48.93-.96 1.4-1.43a99.834 99.834 0 0 1 141.19-.07c.61.61 1.21 1.23 1.81 1.85a99.677 99.677 0 0 1 18.6 109.51c-2.52 5.62-6.28 12.26-7.65 13.54Z"/>
  </g>
</svg>
